<svg width="20" height="20" viewBox="0 0 20 20" fill="none" xmlns="http://www.w3.org/2000/svg">
<path d="M14 1.66675H11.8333C9.16667 1.66675 7.5 3.33341 7.5 6.00008V9.37508H12.7083C13.05 9.37508 13.3333 9.65841 13.3333 10.0001C13.3333 10.3417 13.05 10.6251 12.7083 10.6251H7.5V14.0001C7.5 16.6667 9.16667 18.3334 11.8333 18.3334H13.9917C16.6583 18.3334 18.325 16.6667 18.325 14.0001V6.00008C18.3333 3.33341 16.6667 1.66675 14 1.66675Z" fill="#FC8908"/>
<path d="M3.80117 9.37476L5.52617 7.64979C5.65117 7.52479 5.70951 7.36646 5.70951 7.20812C5.70951 7.04979 5.65117 6.88312 5.52617 6.76646C5.28451 6.52479 4.88451 6.52479 4.64284 6.76646L1.85117 9.55809C1.60951 9.79976 1.60951 10.1998 1.85117 10.4414L4.64284 13.2331C4.88451 13.4748 5.28451 13.4748 5.52617 13.2331C5.76784 12.9914 5.76784 12.5914 5.52617 12.3498L3.80117 10.6248H7.50117V9.37476H3.80117Z" fill="#FC8908"/>
</svg>
