<svg width="18" height="18" viewBox="0 0 18 18" fill="none" xmlns="http://www.w3.org/2000/svg">
<path fill-rule="evenodd" clip-rule="evenodd" d="M11.856 9.09444C12.0415 9.03194 12.2375 8.99944 12.435 8.99944H12.991C13.0081 8.99948 13.025 8.996 13.0407 8.98922C13.0564 8.98245 13.0706 8.97252 13.0823 8.96005C13.094 8.94758 13.1031 8.93284 13.1088 8.91674C13.1146 8.90064 13.1171 8.88352 13.116 8.86644L12.891 5.60744C12.8875 5.54448 12.8593 5.48542 12.8127 5.44304C12.766 5.40066 12.7045 5.37835 12.6415 5.38094C10.5085 5.48894 8.79447 7.07394 8.66297 9.24794L8.64547 9.53744C8.64313 9.57643 8.64997 9.61543 8.66543 9.65131C8.68089 9.68718 8.70454 9.71893 8.73448 9.74402C8.76443 9.7691 8.79984 9.78682 8.83786 9.79575C8.87589 9.80468 8.91548 9.80457 8.95347 9.79544L11.856 9.09444ZM11.95 6.49794C10.91 6.78394 10.105 7.54744 9.79447 8.56344L11.5835 8.13144C11.7378 8.08244 11.8951 8.04711 12.0555 8.02544L11.95 6.49794Z" fill="#FC8908"/>
<path fill-rule="evenodd" clip-rule="evenodd" d="M2.24988 9.02022e-08C1.94988 -9.62182e-05 1.6549 0.0769299 1.39325 0.223683C1.1316 0.370437 0.912064 0.58199 0.755729 0.838031C0.599393 1.09407 0.511503 1.386 0.500497 1.6858C0.489492 1.98559 0.55574 2.28319 0.692881 2.55L0.112881 9.188L0.110881 9.22L0.0698808 10.38C0.04829 10.9911 0.257143 11.5879 0.655017 12.0522C1.05289 12.5165 1.61072 12.8143 2.21788 12.8865L2.30788 12.8975C2.78168 12.9537 3.26154 12.8697 3.68811 12.656C4.11467 12.4422 4.46922 12.1081 4.70788 11.695L5.80538 9.792C6.05288 9.3635 5.66638 8.8475 5.18538 8.9645L4.34488 9.1685L3.07088 9.086L2.53788 9.0225L3.38388 3.4115C4.29138 3.6925 5.18738 3.9905 5.96038 4.4125C6.70788 4.821 7.30438 5.327 7.66888 6.0115C7.00635 6.93631 6.62161 8.03104 6.55988 9.167L6.40438 11.972C6.40057 12.0399 6.41065 12.1079 6.43401 12.1717C6.45736 12.2356 6.4935 12.294 6.5402 12.3434C6.58691 12.3929 6.64321 12.4322 6.70565 12.4592C6.7681 12.4861 6.83538 12.5 6.90338 12.5H17.7284C17.7629 12.5 17.7971 12.4928 17.8287 12.4789C17.8604 12.465 17.8888 12.4447 17.9122 12.4193C17.9356 12.3939 17.9534 12.3639 17.9647 12.3312C17.9759 12.2986 17.9802 12.2639 17.9774 12.2295L17.6824 8.6875C17.6667 8.50004 17.5812 8.32532 17.4427 8.19798C17.3042 8.07064 17.123 7.99997 16.9349 8H15.0219C15.0158 8.00006 15.0099 7.99791 15.0053 7.99396C15.0007 7.99 14.9977 7.98451 14.9969 7.9785L14.4949 4.3625C14.4617 4.1234 14.3431 3.90437 14.1611 3.74585C13.979 3.58732 13.7458 3.5 13.5044 3.5H12.5509C11.6712 3.49962 10.8022 3.69267 10.0054 4.0655C8.54838 1.8615 5.99938 1.2405 3.68088 0.7425C3.51935 0.513086 3.30502 0.325875 3.05597 0.196652C2.80693 0.0674285 2.53046 -1.76825e-05 2.24988 9.02022e-08ZM1.49988 1.75C1.49988 1.55109 1.5789 1.36032 1.71955 1.21967C1.8602 1.07902 2.05097 1 2.24988 1C2.44879 1 2.63956 1.07902 2.78021 1.21967C2.92086 1.36032 2.99988 1.55109 2.99988 1.75C2.99988 1.94891 2.92086 2.13968 2.78021 2.28033C2.63956 2.42098 2.44879 2.5 2.24988 2.5C2.05097 2.5 1.8602 2.42098 1.71955 2.28033C1.5789 2.13968 1.49988 1.94891 1.49988 1.75ZM2.48838 3.484C2.1522 3.52914 1.81013 3.47672 1.50288 3.333L0.985381 9.2515L0.944381 10.411C0.930602 10.8027 1.06452 11.1852 1.31958 11.4828C1.57463 11.7804 1.9322 11.9712 2.32138 12.0175L2.41138 12.0285C2.71506 12.0644 3.0226 12.0106 3.29602 11.8737C3.56944 11.7367 3.79676 11.5227 3.94988 11.258L4.68288 9.987L4.50488 10.03C4.44955 10.0433 4.39321 10.0483 4.33588 10.045L2.99088 9.9575L2.11438 9.853C2.03953 9.84413 1.96723 9.82031 1.90177 9.78295C1.83631 9.74559 1.77902 9.69545 1.73332 9.63552C1.68761 9.57559 1.65441 9.50708 1.6357 9.43407C1.61699 9.36106 1.61314 9.28503 1.62438 9.2105L2.48838 3.484ZM6.43988 3.535C5.62338 3.089 4.69938 2.7745 3.82988 2.503C3.92688 2.2995 3.98638 2.0745 3.99788 1.837C6.12488 2.318 8.01588 2.916 9.13688 4.5655C8.85866 4.75808 8.59723 4.97385 8.35538 5.2105C7.87188 4.476 7.18738 3.9435 6.43988 3.5355M7.55838 9.223C7.62919 7.9468 8.18605 6.74618 9.11456 5.86779C10.0431 4.9894 11.2727 4.49995 12.5509 4.5H13.5044L14.0064 8.116C14.0404 8.36102 14.1619 8.58548 14.3485 8.74795C14.535 8.91041 14.774 8.99994 15.0214 9H16.7049L16.9134 11.5H7.43188L7.55838 9.223Z" fill="#FC8908"/>
<path d="M8.75 16.5C8.94891 16.5 9.13968 16.421 9.28033 16.2803C9.42098 16.1397 9.5 15.9489 9.5 15.75C9.5 15.5511 9.42098 15.3603 9.28033 15.2197C9.13968 15.079 8.94891 15 8.75 15C8.55109 15 8.36032 15.079 8.21967 15.2197C8.07902 15.3603 8 15.5511 8 15.75C8 15.9489 8.07902 16.1397 8.21967 16.2803C8.36032 16.421 8.55109 16.5 8.75 16.5ZM12.5 15.75C12.5 15.9489 12.421 16.1397 12.2803 16.2803C12.1397 16.421 11.9489 16.5 11.75 16.5C11.5511 16.5 11.3603 16.421 11.2197 16.2803C11.079 16.1397 11 15.9489 11 15.75C11 15.5511 11.079 15.3603 11.2197 15.2197C11.3603 15.079 11.5511 15 11.75 15C11.9489 15 12.1397 15.079 12.2803 15.2197C12.421 15.3603 12.5 15.5511 12.5 15.75ZM14.75 16.5C14.9489 16.5 15.1397 16.421 15.2803 16.2803C15.421 16.1397 15.5 15.9489 15.5 15.75C15.5 15.5511 15.421 15.3603 15.2803 15.2197C15.1397 15.079 14.9489 15 14.75 15C14.5511 15 14.3603 15.079 14.2197 15.2197C14.079 15.3603 14 15.5511 14 15.75C14 15.9489 14.079 16.1397 14.2197 16.2803C14.3603 16.421 14.5511 16.5 14.75 16.5Z" fill="#FC8908"/>
<path fill-rule="evenodd" clip-rule="evenodd" d="M7.75 13.5C7.45453 13.5 7.16194 13.5582 6.88896 13.6713C6.61598 13.7843 6.36794 13.9501 6.15901 14.159C5.95008 14.3679 5.78434 14.616 5.67127 14.889C5.5582 15.1619 5.5 15.4545 5.5 15.75C5.5 16.0455 5.5582 16.3381 5.67127 16.611C5.78434 16.884 5.95008 17.1321 6.15901 17.341C6.36794 17.5499 6.61598 17.7157 6.88896 17.8287C7.16194 17.9418 7.45453 18 7.75 18H15.75C16.0455 18 16.3381 17.9418 16.611 17.8287C16.884 17.7157 17.1321 17.5499 17.341 17.341C17.5499 17.1321 17.7157 16.884 17.8287 16.611C17.9418 16.3381 18 16.0455 18 15.75C18 15.4545 17.9418 15.1619 17.8287 14.889C17.7157 14.616 17.5499 14.3679 17.341 14.159C17.1321 13.9501 16.884 13.7843 16.611 13.6713C16.3381 13.5582 16.0455 13.5 15.75 13.5H7.75ZM15.75 14.5H7.75C7.41848 14.5 7.10054 14.6317 6.86612 14.8661C6.6317 15.1005 6.5 15.4185 6.5 15.75C6.5 16.0815 6.6317 16.3995 6.86612 16.6339C7.10054 16.8683 7.41848 17 7.75 17H15.75C16.0815 17 16.3995 16.8683 16.6339 16.6339C16.8683 16.3995 17 16.0815 17 15.75C17 15.4185 16.8683 15.1005 16.6339 14.8661C16.3995 14.6317 16.0815 14.5 15.75 14.5Z" fill="#FC8908"/>
</svg>
