<svg width="20" height="20" viewBox="0 0 20 20" fill="none" xmlns="http://www.w3.org/2000/svg">
<path d="M7.29183 5.83337C7.12607 5.83337 6.9671 5.89922 6.84989 6.01643C6.73268 6.13364 6.66683 6.29261 6.66683 6.45837C6.66683 6.62413 6.73268 6.78311 6.84989 6.90032C6.9671 7.01753 7.12607 7.08337 7.29183 7.08337H13.5418C13.7076 7.08337 13.8666 7.01753 13.9838 6.90032C14.101 6.78311 14.1668 6.62413 14.1668 6.45837C14.1668 6.29261 14.101 6.13364 13.9838 6.01643C13.8666 5.89922 13.7076 5.83337 13.5418 5.83337H7.29183ZM5.8335 9.79171C5.8335 9.62595 5.89934 9.46698 6.01655 9.34977C6.13376 9.23256 6.29274 9.16671 6.4585 9.16671H11.8752C12.0409 9.16671 12.1999 9.23256 12.3171 9.34977C12.4343 9.46698 12.5002 9.62595 12.5002 9.79171C12.5002 9.95747 12.4343 10.1164 12.3171 10.2336C12.1999 10.3509 12.0409 10.4167 11.8752 10.4167H6.4585C6.29274 10.4167 6.13376 10.3509 6.01655 10.2336C5.89934 10.1164 5.8335 9.95747 5.8335 9.79171ZM8.12516 12.5C7.9594 12.5 7.80043 12.5659 7.68322 12.6831C7.56601 12.8003 7.50016 12.9593 7.50016 13.125C7.50016 13.2908 7.56601 13.4498 7.68322 13.567C7.80043 13.6842 7.9594 13.75 8.12516 13.75H13.5418C13.7076 13.75 13.8666 13.6842 13.9838 13.567C14.101 13.4498 14.1668 13.2908 14.1668 13.125C14.1668 12.9593 14.101 12.8003 13.9838 12.6831C13.8666 12.5659 13.7076 12.5 13.5418 12.5H8.12516Z" fill="#FC8908"/>
<path d="M1.6665 3.12496C1.6665 2.31996 2.31984 1.66663 3.12484 1.66663H16.8748C17.6798 1.66663 18.3332 2.31996 18.3332 3.12496V16.875C18.3332 17.2617 18.1795 17.6327 17.906 17.9062C17.6325 18.1796 17.2616 18.3333 16.8748 18.3333H3.12484C2.73806 18.3333 2.36713 18.1796 2.09364 17.9062C1.82015 17.6327 1.6665 17.2617 1.6665 16.875V3.12496ZM3.12484 2.91663C3.06958 2.91663 3.01659 2.93858 2.97752 2.97765C2.93845 3.01672 2.9165 3.06971 2.9165 3.12496V16.875C2.9165 16.99 3.00984 17.0833 3.12484 17.0833H16.8748C16.9301 17.0833 16.9831 17.0613 17.0222 17.0223C17.0612 16.9832 17.0832 16.9302 17.0832 16.875V3.12496C17.0832 3.06971 17.0612 3.01672 17.0222 2.97765C16.9831 2.93858 16.9301 2.91663 16.8748 2.91663H3.12484Z" fill="#FC8908"/>
</svg>
