<svg width="20" height="20" viewBox="0 0 20 20" fill="none" xmlns="http://www.w3.org/2000/svg">
<g clip-path="url(#clip0_299_7426)">
<path fill-rule="evenodd" clip-rule="evenodd" d="M12.4999 4.99997C12.5001 5.51718 12.34 6.02174 12.0415 6.44412C11.743 6.8665 11.3208 7.1859 10.8332 7.3583V9.16664H13.3332C13.9962 9.16664 14.6321 9.43003 15.101 9.89887C15.5698 10.3677 15.8332 11.0036 15.8332 11.6666V12.6416C16.3894 12.8382 16.8583 13.2251 17.1568 13.734C17.4554 14.2428 17.5644 14.8408 17.4647 15.4223C17.365 16.0038 17.0629 16.5313 16.6118 16.9115C16.1608 17.2918 15.5898 17.5004 14.9999 17.5004C14.4099 17.5004 13.8389 17.2918 13.3879 16.9115C12.9368 16.5313 12.6347 16.0038 12.535 15.4223C12.4353 14.8408 12.5443 14.2428 12.8429 13.734C13.1414 13.2251 13.6103 12.8382 14.1665 12.6416V11.6666C14.1665 11.4456 14.0787 11.2337 13.9225 11.0774C13.7662 10.9211 13.5542 10.8333 13.3332 10.8333H6.66653C6.44551 10.8333 6.23355 10.9211 6.07727 11.0774C5.92099 11.2337 5.8332 11.4456 5.8332 11.6666V12.6416C6.38944 12.8382 6.85827 13.2251 7.15683 13.734C7.45538 14.2428 7.56443 14.8408 7.4647 15.4223C7.36497 16.0038 7.06289 16.5313 6.61184 16.9115C6.16079 17.2918 5.58982 17.5004 4.99986 17.5004C4.4099 17.5004 3.83893 17.2918 3.38789 16.9115C2.93684 16.5313 2.63475 16.0038 2.53502 15.4223C2.43529 14.8408 2.54434 14.2428 2.8429 13.734C3.14145 13.2251 3.61028 12.8382 4.16653 12.6416V11.6666C4.16653 11.0036 4.42992 10.3677 4.89876 9.89887C5.3676 9.43003 6.00349 9.16664 6.66653 9.16664H9.16653V7.3583C8.73415 7.20566 8.35206 6.93709 8.06203 6.58194C7.772 6.22679 7.5852 5.79874 7.52203 5.34459C7.45887 4.89043 7.52179 4.42765 7.7039 4.00684C7.88602 3.58603 8.18032 3.22339 8.55464 2.95856C8.92895 2.69373 9.36887 2.53691 9.82631 2.50524C10.2837 2.47357 10.7411 2.56827 11.1483 2.779C11.5556 2.98972 11.897 3.30835 12.1354 3.70005C12.3738 4.09175 12.4998 4.54144 12.4999 4.99997ZM9.99986 4.16664C9.77885 4.16664 9.56689 4.25443 9.41061 4.41071C9.25433 4.56699 9.16653 4.77896 9.16653 4.99997C9.16653 5.22098 9.25433 5.43294 9.41061 5.58923C9.56689 5.74551 9.77885 5.8333 9.99986 5.8333C10.2209 5.8333 10.4328 5.74551 10.5891 5.58923C10.7454 5.43294 10.8332 5.22098 10.8332 4.99997C10.8332 4.77896 10.7454 4.56699 10.5891 4.41071C10.4328 4.25443 10.2209 4.16664 9.99986 4.16664ZM4.99986 14.1666C4.77885 14.1666 4.56689 14.2544 4.41061 14.4107C4.25433 14.567 4.16653 14.779 4.16653 15C4.16653 15.221 4.25433 15.4329 4.41061 15.5892C4.56689 15.7455 4.77885 15.8333 4.99986 15.8333C5.22088 15.8333 5.43284 15.7455 5.58912 15.5892C5.7454 15.4329 5.8332 15.221 5.8332 15C5.8332 14.779 5.7454 14.567 5.58912 14.4107C5.43284 14.2544 5.22088 14.1666 4.99986 14.1666ZM14.9999 14.1666C14.7788 14.1666 14.5669 14.2544 14.4106 14.4107C14.2543 14.567 14.1665 14.779 14.1665 15C14.1665 15.221 14.2543 15.4329 14.4106 15.5892C14.5669 15.7455 14.7788 15.8333 14.9999 15.8333C15.2209 15.8333 15.4328 15.7455 15.5891 15.5892C15.7454 15.4329 15.8332 15.221 15.8332 15C15.8332 14.779 15.7454 14.567 15.5891 14.4107C15.4328 14.2544 15.2209 14.1666 14.9999 14.1666Z" fill="#FC8908"/>
</g>
<defs>
<clipPath id="clip0_299_7426">
<rect width="20" height="20" fill="white"/>
</clipPath>
</defs>
</svg>
