<svg width="16" height="20" viewBox="0 0 16 20" fill="none" xmlns="http://www.w3.org/2000/svg">
<g clip-path="url(#clip0_299_7431)">
<path d="M9.28078 18.3333V6.66663M9.28078 18.3333H5.42433C3.60665 18.3333 2.69717 18.3333 2.13284 17.6008C1.56787 16.8691 1.56787 15.69 1.56787 13.3333V6.66663C1.56787 4.30996 1.56787 3.13079 2.13284 2.39913C2.69717 1.66663 3.60665 1.66663 5.42433 1.66663C7.242 1.66663 8.15148 1.66663 8.71581 2.39913C9.28078 3.13079 9.28078 4.30996 9.28078 6.66663M9.28078 18.3333H11.8517C13.064 18.3333 13.6694 18.3333 14.0461 17.845C14.4227 17.3566 14.4227 16.5716 14.4227 15V9.99996C14.4227 8.42829 14.4227 7.64329 14.0461 7.15496C13.6694 6.66663 13.064 6.66663 11.8517 6.66663H9.28078M4.46021 9.16663H3.81747M7.03118 9.16663H6.38844M4.46021 5.83329H3.81747M4.46021 12.5H3.81747M7.03118 5.83329H6.38844M7.03118 12.5H6.38844M12.1731 12.5H11.5304M12.1731 9.16663H11.5304" stroke="#FC8908" stroke-width="1.5" stroke-linecap="round" stroke-linejoin="round"/>
</g>
<defs>
<clipPath id="clip0_299_7431">
<rect width="15.4258" height="20" fill="white" transform="translate(0.282227)"/>
</clipPath>
</defs>
</svg>
