<svg width="19" height="19" viewBox="0 0 19 19" fill="none" xmlns="http://www.w3.org/2000/svg">
<g opacity="0.5">
<path fill-rule="evenodd" clip-rule="evenodd" d="M9.5 7.125C8.18829 7.125 7.125 8.18829 7.125 9.5C7.125 10.8117 8.18829 11.875 9.5 11.875C10.8117 11.875 11.875 10.8117 11.875 9.5C11.875 8.18829 10.8117 7.125 9.5 7.125ZM8.70833 9.5C8.70833 9.06276 9.06276 8.70833 9.5 8.70833C9.93724 8.70833 10.2917 9.06276 10.2917 9.5C10.2917 9.93724 9.93724 10.2917 9.5 10.2917C9.06276 10.2917 8.70833 9.93724 8.70833 9.5Z" fill="black"/>
<path fill-rule="evenodd" clip-rule="evenodd" d="M17.282 8.93047C15.4707 5.66181 12.5179 3.95825 9.49992 3.95825C6.4819 3.95825 3.52914 5.66181 1.71786 8.93047C1.5408 9.25007 1.53861 9.64408 1.71015 9.9651C3.49262 13.3009 6.46214 15.0416 9.49992 15.0416C12.5377 15.0416 15.5072 13.3009 17.2897 9.9651C17.4612 9.64408 17.459 9.25007 17.282 8.93047ZM9.49992 13.4583C7.17319 13.4583 4.782 12.1697 3.23921 9.45931C4.80424 6.8052 7.18286 5.54159 9.49992 5.54159C11.817 5.54159 14.1956 6.8052 15.7607 9.45931C14.2179 12.1697 11.8266 13.4583 9.49992 13.4583Z" fill="black"/>
</g>
</svg>
