<svg width="46" height="46" viewBox="0 0 46 46" fill="none" xmlns="http://www.w3.org/2000/svg">
<rect width="46" height="46" rx="23" fill="#70A1E6"/>
<path fill-rule="evenodd" clip-rule="evenodd" d="M23.0002 14.5208C18.3199 14.5208 14.521 18.3197 14.521 23C14.521 27.6803 18.3199 31.4792 23.0002 31.4792C27.6805 31.4792 31.4793 27.6803 31.4793 23C31.4793 18.3197 27.6805 14.5208 23.0002 14.5208ZM13.146 23C13.146 17.5603 17.5605 13.1458 23.0002 13.1458C28.4399 13.1458 32.8543 17.5603 32.8543 23C32.8543 28.4397 28.4399 32.8542 23.0002 32.8542C17.5605 32.8542 13.146 28.4397 13.146 23Z" fill="#F1F1F1"/>
<path fill-rule="evenodd" clip-rule="evenodd" d="M22.6611 18.1967C23.0408 18.1967 23.3486 18.5045 23.3486 18.8842V22.6425C23.3486 22.7833 23.4024 22.9873 23.5219 23.1968C23.6414 23.4064 23.7896 23.5564 23.91 23.6277L23.9118 23.6288L23.9118 23.6288L26.7534 25.3247C27.0795 25.5192 27.1861 25.9413 26.9915 26.2673C26.7969 26.5934 26.3749 26.7 26.0488 26.5054L23.209 24.8106C23.2087 24.8104 23.2083 24.8103 23.208 24.8101C22.8339 24.5881 22.5332 24.2387 22.3275 23.878C22.1216 23.5169 21.9736 23.0793 21.9736 22.6425V18.8842C21.9736 18.5045 22.2814 18.1967 22.6611 18.1967Z" fill="#F1F1F1"/>
</svg>
